<svg width="40" height="40" viewBox="0 0 40 40" fill="none" xmlns="http://www.w3.org/2000/svg">
<path d="M37.8652 17.5C37.1934 16.8281 36.3105 16.4609 35.3652 16.4609C31.7871 16.4609 28.2559 17.0391 24.8652 18.1875L23.2871 18.7188C23.1934 18.75 23.1387 18.6172 23.2246 18.5781L24.7246 17.8359C27.9355 16.25 30.8418 14.1641 33.373 11.6328C34.0371 10.9687 34.4043 10.1016 34.4121 9.17969C34.4355 7.24219 32.8574 5.625 30.9199 5.59375C29.959 5.57812 29.0527 5.95313 28.373 6.63281C25.8418 9.16406 23.7559 12.0703 22.1699 15.2812L21.4277 16.7812C21.3809 16.8672 21.2559 16.8125 21.2871 16.7188L21.8184 15.1406C22.9668 11.75 23.5449 8.21875 23.5449 4.64063C23.5449 3.69531 23.1777 2.80469 22.5059 2.14062C21.834 1.46875 20.9512 1.10156 20.0059 1.10156C19.0605 1.10156 18.1699 1.46875 17.5059 2.14062C16.834 2.8125 16.4668 3.69531 16.4668 4.64063C16.4668 8.21875 17.0449 11.75 18.1934 15.1406L18.7246 16.7188C18.7559 16.8125 18.623 16.8672 18.584 16.7812L17.8418 15.2812C16.2559 12.0703 14.1699 9.16406 11.6387 6.63281C10.9746 5.96875 10.1074 5.60156 9.18555 5.59375C7.24023 5.57031 5.62305 7.14844 5.59961 9.08594C5.58398 10.0469 5.95898 10.9531 6.63867 11.6328C9.16992 14.1641 12.0762 16.25 15.2871 17.8359L16.7871 18.5781C16.873 18.625 16.8184 18.75 16.7246 18.7188L15.1465 18.1875C11.7559 17.0391 8.22461 16.4609 4.64648 16.4609C3.70117 16.4609 2.81055 16.8281 2.14648 17.5C0.763672 18.8828 0.763672 21.125 2.14648 22.5078C2.81836 23.1797 3.70117 23.5469 4.64648 23.5469C8.22461 23.5469 11.7559 22.9687 15.1465 21.8203L16.7246 21.2891C16.8184 21.2578 16.873 21.3906 16.7871 21.4297L15.2871 22.1719C12.0762 23.7578 9.16992 25.8438 6.63867 28.375C5.97461 29.0391 5.60742 29.9062 5.59961 30.8281C5.57617 32.7656 7.1543 34.3828 9.0918 34.4141C10.0527 34.4297 10.959 34.0547 11.6387 33.375C14.1699 30.8438 16.2559 27.9375 17.8418 24.7266L18.584 23.2266C18.6309 23.1406 18.7559 23.1953 18.7246 23.2891L18.1934 24.8672C17.0449 28.2578 16.4668 31.7891 16.4668 35.3672C16.4668 36.3125 16.834 37.2031 17.5059 37.8672C18.1777 38.5391 19.0605 38.9062 20.0059 38.9062C20.9512 38.9062 21.8418 38.5391 22.5059 37.8672C23.1777 37.1953 23.5449 36.3125 23.5449 35.3672C23.5449 31.7891 22.9668 28.2578 21.8184 24.8672L21.2871 23.2891C21.2559 23.1953 21.3887 23.1406 21.4277 23.2266L22.1699 24.7266C23.7559 27.9375 25.8418 30.8438 28.373 33.375C29.0371 34.0391 29.9043 34.4062 30.8262 34.4141C32.7637 34.4375 34.3809 32.8594 34.4121 30.9219C34.4277 29.9609 34.0527 29.0547 33.373 28.375C30.8418 25.8438 27.9355 23.7578 24.7246 22.1719L23.2246 21.4297C23.1387 21.3828 23.1934 21.2578 23.2871 21.2891L24.8652 21.8203C28.2559 22.9687 31.7871 23.5469 35.3652 23.5469C36.3105 23.5469 37.2012 23.1797 37.8652 22.5078C39.248 21.125 39.248 18.875 37.8652 17.5Z" fill="#66C478"/>
</svg>
