<svg width="30" height="30" viewBox="0 0 30 30" fill="none" xmlns="http://www.w3.org/2000/svg">
<path d="M15.0015 27.0856C19.2307 27.0856 22.6592 25.8195 22.6592 24.2577C22.6592 22.6958 19.2307 21.4297 15.0015 21.4297C10.7722 21.4297 7.34375 22.6958 7.34375 24.2577C7.34375 25.8195 10.7722 27.0856 15.0015 27.0856Z" fill="#CCE5FD"/>
<path d="M14.9811 24.2578C14.9811 24.2578 20.2616 17.5969 21.7147 12.4945C21.9025 11.9329 22.0213 11.3505 22.0686 10.7602C22.0686 10.582 22.1038 10.4039 22.1038 10.2281C22.1132 9.28829 21.9374 8.3558 21.5864 7.4839C21.2355 6.612 20.7162 5.81778 20.0583 5.14658C19.4004 4.47537 18.6167 3.94034 17.7519 3.57203C16.8872 3.20372 15.9584 3.00934 15.0186 3H14.9811C13.0834 3.01874 11.2708 3.79053 9.94212 5.14561C8.61342 6.50069 7.87739 8.32806 7.89594 10.2258V10.2281C7.8902 10.4062 7.90198 10.5844 7.9311 10.7602C7.97838 11.3505 8.09722 11.9329 8.28501 12.4945C9.70297 17.5969 14.9811 24.2578 14.9811 24.2578ZM14.9998 7.31719C15.5594 7.31719 16.1063 7.4831 16.5715 7.79394C17.0367 8.10479 17.3993 8.5466 17.6134 9.06352C17.8275 9.58043 17.8836 10.1492 17.7744 10.698C17.6652 11.2467 17.3958 11.7508 17.0002 12.1464C16.6046 12.5421 16.1005 12.8115 15.5517 12.9206C15.003 13.0298 14.4342 12.9738 13.9173 12.7597C13.4004 12.5456 12.9585 12.183 12.6477 11.7178C12.3369 11.2525 12.1709 10.7056 12.1709 10.1461C12.1714 9.39597 12.4696 8.67672 13.0001 8.1463C13.5305 7.61589 14.2497 7.31768 14.9998 7.31719Z" fill="#E5384F"/>
</svg>
